<svg id="Layer_1" data-name="Layer 1" xmlns="http://www.w3.org/2000/svg" viewBox="0 0 136 36"><defs><style>.cls-1{fill:#fff;}</style></defs><polygon class="cls-1" points="15.08 14.64 21.47 14.64 27.92 8.2 21.47 5 15.08 14.64"/><polygon class="cls-1" points="21.47 14.64 15.08 14.64 8.63 8.2 15.08 5 21.47 14.64"/><polygon class="cls-1" points="22.66 16.65 19.47 22.23 21.8 31 27.81 27.05 22.66 16.65"/><polygon class="cls-1" points="19.47 22.23 22.66 16.65 31.44 14.32 31 21.47 19.47 22.23"/><polygon class="cls-1" points="17.08 22.23 13.89 16.65 5.11 14.32 5.55 21.47 17.08 22.23"/><polygon class="cls-1" points="13.89 16.65 17.08 22.23 14.75 31 8.74 27.05 13.89 16.65"/><path class="cls-1" d="M42.65,24.28H37.88V12h4.77c3.85,0,6.5,2.66,6.5,6.07v.05C49.2,21.63,46.5,24.28,42.65,24.28Zm3.74-6.12A3.51,3.51,0,0,0,43,14.48H40.59v7.37h2.06a3.52,3.52,0,0,0,3.74-3.69Z"/><path class="cls-1" d="M55.05,24.5A4.91,4.91,0,0,1,50,19.62h0a5.1,5.1,0,0,1,10.19,0h0A4.91,4.91,0,0,1,55.05,24.5Zm2.44-4.88A2.51,2.51,0,0,0,55.11,17h-.06a2.41,2.41,0,0,0-2.43,2.54v.05A2.51,2.51,0,0,0,55,22.22h0a2.43,2.43,0,0,0,2.44-2.6Z"/><path class="cls-1" d="M65.62,24.5a4.79,4.79,0,0,1-4.88-4.71v-.17h0a4.83,4.83,0,0,1,4.77-4.87h.16a4.59,4.59,0,0,1,3.74,1.57l-1.63,1.73a2.77,2.77,0,0,0-2.16-1,2.4,2.4,0,0,0-2.28,2.55h0a2.42,2.42,0,0,0,2.39,2.6,3,3,0,0,0,2.16-1l1.57,1.57A4.63,4.63,0,0,1,65.62,24.5Z"/><path class="cls-1" d="M76.88,24.39H74.5L69.57,12h3l3.2,8.67L78.94,12h2.93Z"/><path class="cls-1" d="M86,24.5a4.86,4.86,0,0,1-5-4.88h0a5.07,5.07,0,0,1,10.13,0h0A4.91,4.91,0,0,1,86,24.5Zm2.44-4.88A2.51,2.51,0,0,0,86,17H86a2.41,2.41,0,0,0-2.43,2.54v.05a2.51,2.51,0,0,0,2.38,2.6h0a2.43,2.43,0,0,0,2.44-2.6Z"/><path class="cls-1" d="M92.21,24.28V11.5h2.66V24.28Z"/><path class="cls-1" d="M102,24.28v-1a3.55,3.55,0,0,1-2.82,1.2c-1.79,0-3.25-1-3.25-2.88v-.05c0-2,1.57-3,3.79-3a6.54,6.54,0,0,1,2.28.38v-.16c0-1.08-.71-1.73-2-1.73a6,6,0,0,0-2.54.54l-.65-2a8.39,8.39,0,0,1,3.63-.76c2.92,0,4.17,1.52,4.17,4.07v5.41Zm0-3.79a4.65,4.65,0,0,0-1.68-.38c-1.14,0-1.84.44-1.84,1.3v.06c0,.7.6,1.13,1.46,1.13,1.25,0,2.06-.7,2.06-1.62Z"/><path class="cls-1" d="M112,24.28V19c0-1.25-.59-1.9-1.62-1.9s-1.68.65-1.68,1.9v5.25H106V14.91h2.65v1.36a3.26,3.26,0,0,1,2.76-1.52c2,0,3.2,1.35,3.2,3.47v6.06Z"/><path class="cls-1" d="M119.24,24.45c-1.62,0-2.71-.65-2.71-2.82V17.19H115.4V14.91h1.13V12.47h2.66v2.39h2.22v2.27h-2.22v4c0,.6.27.92.86.92a2.75,2.75,0,0,0,1.3-.32v2.11A3.81,3.81,0,0,1,119.24,24.45Z"/><path class="cls-1" d="M124.39,20.55a2.18,2.18,0,0,0,2.27,1.84,3,3,0,0,0,2.28-1l1.51,1.36a5,5,0,0,1-8.77-3.14h0a4.67,4.67,0,0,1,4.66-4.88c3.14,0,4.55,2.44,4.55,5.09v.71Zm2-3.69a2.07,2.07,0,0,0-2,2h4c-.22-1.2-.87-2-2-2Z"/></svg>