<svg id="Layer_1" data-name="Layer 1" xmlns="http://www.w3.org/2000/svg" viewBox="0 0 140 36"><defs><style>.cls-1{fill:#fff;}</style></defs><path class="cls-1" d="M86.55,7.6c.4,0,.8.07,1.18.06a2.47,2.47,0,0,0,2.16-1.24,3.11,3.11,0,0,0,.45-1.95A4.17,4.17,0,0,1,93.28.15,4,4,0,0,1,97.47,1.5a4.41,4.41,0,0,1,.09,5.33,1.46,1.46,0,0,0,.19,2.06l0,0a1.4,1.4,0,0,0,.65.28,2.5,2.5,0,0,1,.81,4.57,2.27,2.27,0,0,1-2.84-.4,2.52,2.52,0,0,1-.44-2.8,1.5,1.5,0,0,0-.67-2,1.08,1.08,0,0,0-.35-.1,20.37,20.37,0,0,1-2.2-.29,2.51,2.51,0,0,0-2.58,1.21,2.84,2.84,0,0,0-.47,1.52A3.14,3.14,0,0,1,88,13.75a3,3,0,0,1-3.91-1,3.28,3.28,0,0,1-.54-1.47A3.24,3.24,0,0,1,84.7,8.22,2.6,2.6,0,0,1,86.55,7.6Z"/><path class="cls-1" d="M25,16.41,24,17.83A4.52,4.52,0,0,0,21.53,17c-1,0-1.52.39-1.52,1s.4,1,2.1,1.44c2,.55,3.21,1.38,3.21,3.16,0,2.08-1.93,3.18-4.22,3.18a5.91,5.91,0,0,1-4-1.42L18.3,23A4.51,4.51,0,0,0,21,24c1.08,0,1.77-.45,1.77-1.21s-.4-1.1-2.28-1.63c-2.05-.57-3-1.55-3-3,0-1.67,1.54-2.94,3.87-2.94A5.67,5.67,0,0,1,25,16.41Z"/><path class="cls-1" d="M42,24.15l-.51,1.61a2.32,2.32,0,0,1-2.22-1.45,3.42,3.42,0,0,1-3,1.49,3,3,0,0,1-3.24-3.09c0-2.17,1.65-3.35,4.56-3.35h1.25v-.59c0-1.3-.58-1.76-1.87-1.76a8.86,8.86,0,0,0-2.65.53l-.59-1.65a10.28,10.28,0,0,1,3.63-.71c2.67,0,3.85,1.22,3.85,3.44v4.2C41.27,23.68,41.54,24,42,24.15Zm-3.15-1.34v-2h-1c-1.57,0-2.35.59-2.35,1.77a1.31,1.31,0,0,0,1.12,1.5,1,1,0,0,0,.3,0A2.11,2.11,0,0,0,38.88,22.81Z"/><path class="cls-1" d="M51,18.26v7.26H48.54V18.64c0-1.25-.47-1.61-1.23-1.61s-1.51.59-2.1,1.52v7H42.79v-10h2.1l.19,1.31a3.7,3.7,0,0,1,3.05-1.59C49.92,15.22,51,16.35,51,18.26Z"/><path class="cls-1" d="M60.55,18.26v7.26H58.13V18.64c0-1.25-.48-1.61-1.23-1.61s-1.52.59-2.11,1.52v7H52.36v-10h2.1l.19,1.31a3.72,3.72,0,0,1,3.05-1.59C59.51,15.22,60.55,16.35,60.55,18.26Z"/><path class="cls-1" d="M70.11,21.27H63.83C64,23.32,65,24,66.28,24a4.24,4.24,0,0,0,2.51-.89l1,1.39a5.79,5.79,0,0,1-3.71,1.34c-3.1,0-4.77-2.07-4.77-5.23s1.61-5.36,4.45-5.36,4.41,1.9,4.41,5.06C70.17,20.59,70.13,21,70.11,21.27Zm-2.35-1.68c0-1.65-.59-2.63-2-2.63-1.14,0-1.86.76-2,2.74h3.94Z"/><path class="cls-1" d="M76.85,15.5l-.38,2.25a3.35,3.35,0,0,0-.89-.12c-1.21,0-1.84.89-2.22,2.58v5.34H70.93v-10H73l.23,2a3.24,3.24,0,0,1,1.5-2Z"/><path class="cls-1" d="M81.76,25.52h-2.9l-3.31-10h2.63l2.14,8.07,2.2-8.07H85Z"/><path class="cls-1" d="M87.52,25.52H85.09v-10h2.43Z"/><path class="cls-1" d="M95.74,16.41l-.95,1.42A4.47,4.47,0,0,0,92.27,17c-1,0-1.52.39-1.52,1s.4,1,2.11,1.44c2,.55,3.19,1.38,3.19,3.16,0,2.08-1.92,3.18-4.22,3.18a5.84,5.84,0,0,1-4-1.42L89.05,23a4.55,4.55,0,0,0,2.7,1c1.08,0,1.76-.45,1.76-1.21s-.39-1.1-2.26-1.63c-2.07-.59-3-1.55-3-3,0-1.67,1.53-2.94,3.86-2.94A5.69,5.69,0,0,1,95.74,16.41Z"/><path class="cls-1" d="M99,25.52H96.61v-10H99Z"/><path class="cls-1" d="M109.31,20.5c0,3.16-1.76,5.29-4.7,5.29s-4.71-2-4.71-5.29,1.77-5.29,4.71-5.29S109.31,17.22,109.31,20.5Zm-6.87,0c0,2.4.74,3.46,2.16,3.46s2.15-1.08,2.15-3.46-.73-3.45-2.14-3.45S102.44,18.13,102.44,20.5Z"/><path class="cls-1" d="M118.35,18.26v7.26h-2.43V18.64c0-1.25-.47-1.61-1.23-1.61a2.58,2.58,0,0,0-2.1,1.52v7h-2.43v-10h2.11l.18,1.31a3.73,3.73,0,0,1,3.06-1.59C117.3,15.22,118.35,16.35,118.35,18.26Z"/><path class="cls-1" d="M120.72,14.9h-.59v2h-.44v-2h-.62v-.35h1.7Z"/><path class="cls-1" d="M122.91,16.85h-.43l-.06-1a7.32,7.32,0,0,1,0-.94L122,16.57h-.41l-.45-1.65a7.69,7.69,0,0,1,0,1l0,.94h-.43l.18-2.29h.59l.41,1.6.39-1.6h.58Z"/><path class="cls-1" d="M30.14,15.22c-2.88,0-4.7,2.17-4.7,5.37s1.8,5.21,4.7,5.21a6.14,6.14,0,0,0,3.56-1.44L33,22.59a4.36,4.36,0,0,1-2.74,1.22C28.91,23.81,28,23,28,20.54s.87-3.38,2.28-3.38a3,3,0,0,1,1.63.46l.62-1.77A4.72,4.72,0,0,0,30.14,15.22Z"/></svg>