<svg id="Layer_1" data-name="Layer 1" xmlns="http://www.w3.org/2000/svg" xmlns:xlink="http://www.w3.org/1999/xlink" viewBox="0 0 615 515"><defs><style>.cls-1{fill-rule:evenodd;fill:url(#radial-gradient);}</style><radialGradient id="radial-gradient" cx="443.77" cy="117.32" r="468.55" gradientTransform="translate(-11.13 38.05) scale(0.96)" gradientUnits="userSpaceOnUse"><stop offset="0" stop-color="#ec1c24"/><stop offset="0.87" stop-color="#be2e6e"/><stop offset="1" stop-color="#b6246f"/></radialGradient></defs><path class="cls-1" d="M111.69,278.2c14.4.8,28.83,2.35,43.24,2.21,34.49-.21,60.29-16.84,78.61-45.21,13.84-21.43,18-45.41,16.22-70.78-5-69.81,36.81-135.52,106.16-156.74C410.13-8.82,472.73,11.54,508,56.82c44.45,57.08,45.74,134.14,3.26,193.36-18.57,25.92-15.91,56.94,7.55,75.37A53.85,53.85,0,0,0,542.32,336c31.67,5.66,60.46,31.13,69.26,65.4,10.06,39-7.43,81.27-39.48,100.39-33.59,20-76.45,14.39-103.32-14.6a91.55,91.55,0,0,1-16-101.63c13.82-29.58-.11-62.46-23.95-72.68a39.32,39.32,0,0,0-12.65-3.42c-26.92-1.55-53.3-6.17-79.91-10.52-39.84-6.52-71.4,10.77-93.81,43.86-11.17,16.5-16.15,35.17-16.81,55.22-1.52,45.76-21.15,81.27-62,103.18C114.21,527.71,53.11,511.84,21.48,465A118.4,118.4,0,0,1,1.72,412.2c-5.42-44.58,7-82.41,41.48-111.84C62.8,283.72,86,276.86,111.69,278.2Z"/></svg>