<svg id="Layer_1" data-name="Layer 1" xmlns="http://www.w3.org/2000/svg" xmlns:xlink="http://www.w3.org/1999/xlink" viewBox="0 0 180 55"><defs><style>.cls-1{fill-rule:evenodd;fill:url(#radial-gradient);}.cls-2{fill:#17366d;}</style><radialGradient id="radial-gradient" cx="156.03" cy="7.41" r="21.96" gradientTransform="translate(-16.91 5.67) scale(0.96)" gradientUnits="userSpaceOnUse"><stop offset="0" stop-color="#ec1c24"/><stop offset="0.87" stop-color="#be2e6e"/><stop offset="1" stop-color="#b6246f"/></radialGradient></defs><path class="cls-1" d="M118.16,18.75c.67,0,1.35.11,2,.1a4.24,4.24,0,0,0,3.68-2.12,5.25,5.25,0,0,0,.76-3.31,7.09,7.09,0,0,1,5-7.35,6.75,6.75,0,0,1,7.13,2.3,7.49,7.49,0,0,1,.15,9.06,2.49,2.49,0,0,0,.36,3.54,2.43,2.43,0,0,0,1.1.48,4.21,4.21,0,0,1,3.24,3.07,4.28,4.28,0,0,1-1.85,4.7,3.87,3.87,0,0,1-4.84-.68,4.29,4.29,0,0,1-.75-4.76A2.55,2.55,0,0,0,133,20.37a1.79,1.79,0,0,0-.59-.16,36.64,36.64,0,0,1-3.75-.49,4.24,4.24,0,0,0-4.39,2.05,4.75,4.75,0,0,0-.79,2.59,5.33,5.33,0,0,1-2.91,4.84,5.11,5.11,0,0,1-6.66-1.7A5.62,5.62,0,0,1,113,25,5.55,5.55,0,0,1,115,19.79,4.41,4.41,0,0,1,118.16,18.75Z"/><path class="cls-2" d="M13.43,33.73l-1.61,2.41a7.78,7.78,0,0,0-4.28-1.38c-1.65,0-2.58.67-2.58,1.7s.68,1.65,3.58,2.45C12,39.85,14,41.26,14,44.29c0,3.54-3.29,5.41-7.18,5.41A10,10,0,0,1,0,47.29L2.06,45A7.69,7.69,0,0,0,6.7,46.64c1.84,0,3-.77,3-2.06s-.68-1.87-3.87-2.77C2.35,40.84.8,39.17.8,36.66c0-2.84,2.61-5,6.58-5A9.56,9.56,0,0,1,13.43,33.73Z"/><path class="cls-2" d="M42.42,46.9l-.87,2.74a3.94,3.94,0,0,1-3.77-2.48,5.8,5.8,0,0,1-5.09,2.54c-3.41,0-5.51-2.16-5.51-5.25,0-3.7,2.8-5.7,7.76-5.7h2.13v-1c0-2.22-1-3-3.19-3a15.2,15.2,0,0,0-4.51.9l-1-2.8a17.44,17.44,0,0,1,6.18-1.22c4.54,0,6.54,2.09,6.54,5.86v7.15C41.13,46.09,41.58,46.58,42.42,46.9Zm-5.35-2.29V41.17H35.36c-2.67,0-4,1-4,3a2.26,2.26,0,0,0,2.42,2.58A3.64,3.64,0,0,0,37.07,44.61Z"/><path class="cls-2" d="M57.62,36.88V49.22H53.5V37.53c0-2.13-.81-2.74-2.09-2.74-1.49,0-2.58,1-3.58,2.58V49.22H43.71v-17h3.57l.32,2.22a6.36,6.36,0,0,1,5.19-2.7C55.85,31.7,57.62,33.63,57.62,36.88Z"/><path class="cls-2" d="M73.92,36.88V49.22H69.8V37.53c0-2.13-.81-2.74-2.09-2.74-1.49,0-2.58,1-3.58,2.58V49.22H60v-17h3.57l.32,2.22a6.36,6.36,0,0,1,5.19-2.7C72.15,31.7,73.92,33.63,73.92,36.88Z"/><path class="cls-2" d="M90.19,42H79.5c.29,3.48,1.93,4.61,4.18,4.61a7.12,7.12,0,0,0,4.26-1.52l1.7,2.36a9.78,9.78,0,0,1-6.31,2.28c-5.28,0-8.12-3.51-8.12-8.89,0-5.18,2.74-9.11,7.57-9.11s7.51,3.22,7.51,8.6C90.29,40.84,90.22,41.52,90.19,42Zm-4-2.87c0-2.8-1-4.47-3.32-4.47-1.93,0-3.16,1.29-3.38,4.67h6.7Z"/><path class="cls-2" d="M101.65,32.18,101,36a5.62,5.62,0,0,0-1.51-.2c-2.06,0-3.13,1.52-3.77,4.39v9.08H91.58v-17h3.57l.39,3.35a5.52,5.52,0,0,1,2.56-3.35Z"/><path class="cls-2" d="M110,49.22h-4.93l-5.63-17h4.47l3.64,13.72,3.74-13.72h4.25Z"/><path class="cls-2" d="M119.8,49.22h-4.13v-17h4.13Z"/><path class="cls-2" d="M133.78,33.73l-1.61,2.41a7.79,7.79,0,0,0-4.29-1.38c-1.64,0-2.58.67-2.58,1.7s.68,1.65,3.58,2.45c3.48.94,5.44,2.35,5.44,5.38,0,3.54-3.28,5.41-7.18,5.41a10,10,0,0,1-6.8-2.41L122.41,45A7.66,7.66,0,0,0,127,46.64c1.84,0,3-.77,3-2.06s-.67-1.87-3.86-2.77c-3.52-1-5.06-2.64-5.06-5.15,0-2.84,2.61-5,6.57-5A9.57,9.57,0,0,1,133.78,33.73Z"/><path class="cls-2" d="M139.38,49.22h-4.12v-17h4.12Z"/><path class="cls-2" d="M156.87,40.68c0,5.38-3,9-8,9s-8-3.41-8-9c0-5.34,3-9,8-9S156.87,35.11,156.87,40.68Zm-11.69,0c0,4.09,1.26,5.9,3.67,5.9s3.67-1.84,3.67-5.9-1.25-5.86-3.64-5.86S145.18,36.66,145.18,40.68Z"/><path class="cls-2" d="M172.24,36.88V49.22h-4.12V37.53c0-2.13-.81-2.74-2.1-2.74-1.48,0-2.58,1-3.57,2.58V49.22h-4.13v-17h3.58l.32,2.22a6.35,6.35,0,0,1,5.19-2.7C170.47,31.7,172.24,33.63,172.24,36.88Z"/><path class="cls-2" d="M176.28,31.16h-1v3.31h-.75V31.16h-1.05v-.59h2.89Z"/><path class="cls-2" d="M180,34.47h-.73l-.1-1.63c0-.58-.06-1.18,0-1.59L178.41,34h-.7l-.76-2.8a14.68,14.68,0,0,1,0,1.62l-.1,1.61h-.72l.31-3.9h1l.69,2.73.66-2.73h1Z"/><path class="cls-2" d="M22.2,31.7c-4.9,0-8,3.7-8,9.14s3.06,8.86,8,8.86a10.35,10.35,0,0,0,6.05-2.45l-1.15-3c-2.2,1.66-3.39,2.07-4.67,2.07-2.32,0-3.84-1.45-3.84-5.57S20.07,35,22.46,35a5.17,5.17,0,0,1,2.78.78l1.05-3A8.15,8.15,0,0,0,22.2,31.7Z"/></svg>