<svg id="Layer_1" data-name="Layer 1" xmlns="http://www.w3.org/2000/svg" viewBox="0 0 180 55"><defs><style>.cls-1{fill:#f37421;}</style></defs><rect class="cls-1" x="95.09" y="18.51" width="6.25" height="19.97"/><polygon class="cls-1" points="83.5 31.67 79.4 18.51 72.92 18.51 80.13 38.49 81.43 38.49 85.62 38.49 86.61 38.49 93.9 18.51 87.5 18.51 83.5 31.67"/><polygon class="cls-1" points="116.18 18.51 108.79 18.51 102.25 27.06 109.29 38.49 116.68 38.49 109.17 27.06 116.18 18.51"/><circle class="cls-1" cx="98.21" cy="12.05" r="4.32"/><rect class="cls-1" x="65.45" y="18.51" width="6.25" height="19.97"/><circle class="cls-1" cx="68.58" cy="12.05" r="4.32"/><path class="cls-1" d="M53.31,17.93a25,25,0,0,0-7.22,1l1.59,4.44a15.53,15.53,0,0,1,4.41-1c2.12,0,4.92.05,4.92,3.05h-.09a34.67,34.67,0,0,0-7.48,1c-3.68,1-5,3.44-5,6.43A6,6,0,0,0,50.72,39a8,8,0,0,0,6.2-2.76v2.22h6.25V25.41C63.17,21.23,61.57,17.93,53.31,17.93Zm3.61,12.78c0,.95-.16,4-3.19,4s-3-2.05-3-2.45A2.48,2.48,0,0,1,53,29.68a23.46,23.46,0,0,1,4-.55Z"/><path class="cls-1" d="M125.05,17.93a25,25,0,0,0-7.22,1l1.59,4.44a15.53,15.53,0,0,1,4.41-1c2.12,0,4.92.05,4.92,3.05h-.09a34.67,34.67,0,0,0-7.48,1c-3.68,1-5,3.44-5,6.43a6,6,0,0,0,6.3,6.23,8,8,0,0,0,6.2-2.76v2.22h6.25V25.41C134.91,21.23,133.31,17.93,125.05,17.93Zm3.61,12.78c0,.95-.16,4-3.19,4s-3-2.05-3-2.45a2.48,2.48,0,0,1,2.19-2.54,23.46,23.46,0,0,1,4-.55Z"/><path class="cls-1" d="M134.48,0H107.74a1.1,1.1,0,0,0-1.1,1.1V12.52a1.1,1.1,0,0,0,1.1,1.1h12.34v1.75l-9.48,1h20.86l-9.48-1V13.62h12.5a1.1,1.1,0,0,0,1.1-1.1V1.1A1.1,1.1,0,0,0,134.48,0Zm-.23,12.29H108v-11h26.27Z"/><path class="cls-1" d="M67.22,43.14l-.94,1.09a2.73,2.73,0,0,0-1.78-.69c-1.34,0-2.37,1-2.37,3.59s1,3.56,2.37,3.56a3.12,3.12,0,0,0,2-.78L67.33,51a4.06,4.06,0,0,1-2.9,1.17c-2.49,0-4.24-1.77-4.24-5s1.84-5,4.21-5A4,4,0,0,1,67.22,43.14Z"/><path class="cls-1" d="M74.1,51l-.37,1.18a1.7,1.7,0,0,1-1.63-1.07,2.53,2.53,0,0,1-2.21,1.1,2.19,2.19,0,0,1-2.38-2.27c0-1.6,1.21-2.47,3.36-2.47h.92V47c0-1-.43-1.28-1.38-1.28a6.62,6.62,0,0,0-2,.39L68,44.91a7.6,7.6,0,0,1,2.68-.53c2,0,2.83.91,2.83,2.54V50C73.55,50.61,73.74,50.82,74.1,51Zm-2.31-1V48.48h-.74c-1.16,0-1.73.42-1.73,1.28a1,1,0,0,0,1.05,1.11A1.57,1.57,0,0,0,71.79,50Z"/><path class="cls-1" d="M81.91,48.25c0,2.26-1,3.92-2.91,3.92a2.31,2.31,0,0,1-1.86-.81V54.8l-1.78.2V44.59h1.56l.1.9a2.67,2.67,0,0,1,2.16-1.11C81.1,44.38,81.91,45.9,81.91,48.25Zm-1.87,0c0-1.87-.5-2.55-1.39-2.55a1.85,1.85,0,0,0-1.51,1V50a1.57,1.57,0,0,0,1.35.76C79.47,50.8,80,50.05,80,48.27Z"/><path class="cls-1" d="M87.54,51.61a3.21,3.21,0,0,1-1.86.56c-1.44,0-2.21-.84-2.21-2.41V45.87H82.31V44.59h1.16V43l1.78-.21v1.84H87l-.18,1.28H85.25v3.85c0,.72.24,1,.78,1a1.78,1.78,0,0,0,.88-.27Z"/><path class="cls-1" d="M94.09,52H92.54l-.1-1a2.48,2.48,0,0,1-2.25,1.24c-1.34,0-2.07-.86-2.07-2.29V44.59h1.79v5.07c0,.87.29,1.16.9,1.16a1.86,1.86,0,0,0,1.5-1V44.59h1.78Z"/><path class="cls-1" d="M100.26,44.49l-.3,1.73a2.39,2.39,0,0,0-.66-.08c-.89,0-1.35.65-1.63,1.89V52H95.89V44.59h1.54L97.6,46a2.08,2.08,0,0,1,1.92-1.65A2.5,2.5,0,0,1,100.26,44.49Z"/><path class="cls-1" d="M106.62,48.83H102c.13,1.5.84,2,1.81,2a3,3,0,0,0,1.84-.66l.74,1a4.21,4.21,0,0,1-2.73,1c-2.29,0-3.51-1.52-3.51-3.85s1.18-3.94,3.27-3.94,3.25,1.39,3.25,3.72C106.66,48.34,106.63,48.63,106.62,48.83Zm-1.73-1.24c0-1.22-.43-1.94-1.44-1.94-.83,0-1.36.56-1.46,2h2.9Z"/><path class="cls-1" d="M117.85,45.4c0,2.21-1.6,3.2-3.78,3.2H113V52h-1.84V42.33H114C116.37,42.33,117.85,43.32,117.85,45.4Zm-1.92,0c0-1.22-.74-1.72-2-1.72h-1v3.54h1C115.16,47.22,115.93,46.8,115.93,45.4Z"/><path class="cls-1" d="M122,48.1h-1.17V52H119V42.33h2.88c2.52,0,3.81.92,3.81,2.83a2.61,2.61,0,0,1-2,2.61L126.26,52h-2.12Zm-1.17-1.32H122c1.14,0,1.78-.46,1.78-1.62s-.6-1.49-1.94-1.49h-1Z"/><path class="cls-1" d="M134.91,47.14c0,3.18-1.63,5-4.21,5s-4.22-1.8-4.22-5,1.64-5,4.22-5S134.91,43.92,134.91,47.14Zm-6.49,0c0,2.6.87,3.61,2.28,3.61s2.27-1,2.27-3.62-.82-3.61-2.27-3.61S128.42,44.56,128.42,47.15Z"/></svg>