<svg id="Layer_1" data-name="Layer 1" xmlns="http://www.w3.org/2000/svg" viewBox="0 0 180 55"><defs><style>.cls-1{fill:#ffb800;}.cls-2{fill:#06f;}.cls-3{fill:#4d555b;}</style></defs><polygon class="cls-1" points="14.26 22.69 23.41 22.69 32.64 13.47 23.41 8.89 14.26 22.69"/><polygon class="cls-2" points="23.41 22.69 14.26 22.69 5.04 13.47 14.26 8.89 23.41 22.69"/><polygon class="cls-1" points="25.12 25.56 20.54 33.55 23.88 46.1 32.48 40.45 25.12 25.56"/><polygon class="cls-2" points="20.54 33.55 25.12 25.56 37.67 22.23 37.05 32.46 20.54 33.55"/><polygon class="cls-1" points="17.13 33.55 12.56 25.56 0 22.23 0.62 32.46 17.13 33.55"/><polygon class="cls-2" points="12.56 25.56 17.13 33.55 13.8 46.1 5.19 40.45 12.56 25.56"/><path class="cls-3" d="M53.72,36.49H46.9V19h6.82c5.5,0,9.3,3.8,9.3,8.69v.07C63.1,32.69,59.22,36.49,53.72,36.49Zm5.35-8.76a5,5,0,0,0-4.81-5.27H50.78V33h2.94a5,5,0,0,0,5.35-5.27Z"/><path class="cls-3" d="M71.47,36.8a7,7,0,0,1-7.28-7h0a7.29,7.29,0,0,1,14.57,0h0A7,7,0,0,1,71.47,36.8Zm3.49-7a3.62,3.62,0,0,0-3.41-3.73h-.08A3.47,3.47,0,0,0,68,29.75v.08a3.63,3.63,0,0,0,3.42,3.72h.07A3.49,3.49,0,0,0,75,29.83Z"/><path class="cls-3" d="M86.59,36.8a6.85,6.85,0,0,1-7-6.74v-.23h0a6.92,6.92,0,0,1,6.82-7h.24A6.54,6.54,0,0,1,92,25.1l-2.33,2.48a4,4,0,0,0-3.1-1.48,3.43,3.43,0,0,0-3.26,3.65h0a3.47,3.47,0,0,0,3.41,3.72,4.24,4.24,0,0,0,3.1-1.4l2.25,2.25A6.58,6.58,0,0,1,86.59,36.8Z"/><path class="cls-3" d="M102.71,36.65H99.3L92.25,19h4.26l4.58,12.41L105.66,19h4.18Z"/><path class="cls-3" d="M115.74,36.8a7,7,0,0,1-7.21-7h0a7.25,7.25,0,0,1,14.49,0h0A7,7,0,0,1,115.74,36.8Zm3.48-7a3.62,3.62,0,0,0-3.41-3.73h-.07a3.47,3.47,0,0,0-3.49,3.65v.08a3.61,3.61,0,0,0,3.41,3.72h.08a3.48,3.48,0,0,0,3.48-3.72Z"/><path class="cls-3" d="M124.65,36.49V18.2h3.8V36.49Z"/><path class="cls-3" d="M138.68,36.49V35a5.07,5.07,0,0,1-4,1.7c-2.56,0-4.65-1.47-4.65-4.1v-.08c0-2.87,2.25-4.26,5.43-4.26a9.21,9.21,0,0,1,3.25.54v-.23c0-1.56-1-2.49-2.87-2.49a8.58,8.58,0,0,0-3.64.78L131.24,24a12.09,12.09,0,0,1,5.19-1.08c4.19,0,6,2.17,6,5.81v7.75Zm.08-5.42a6.79,6.79,0,0,0-2.4-.55c-1.63,0-2.64.62-2.64,1.86v.08c0,1,.85,1.63,2.09,1.63,1.79,0,2.95-1,2.95-2.33Z"/><path class="cls-3" d="M153,36.49V29c0-1.78-.86-2.71-2.33-2.71s-2.4.93-2.4,2.71v7.52h-3.8V23.08h3.8V25a4.66,4.66,0,0,1,3.95-2.17c2.87,0,4.57,1.94,4.57,5v8.68Z"/><path class="cls-3" d="M163.33,36.72c-2.32,0-3.87-.93-3.87-4V26.34h-1.63V23.08h1.63V19.59h3.8V23h3.17v3.26h-3.17V32c0,.85.38,1.31,1.24,1.31a3.91,3.91,0,0,0,1.86-.46v3A5.45,5.45,0,0,1,163.33,36.72Z"/><path class="cls-3" d="M170.7,31.14A3.11,3.11,0,0,0,174,33.78a4.35,4.35,0,0,0,3.26-1.4l2.17,1.94a7.15,7.15,0,0,1-12.56-4.49h0a6.69,6.69,0,0,1,6.67-7c4.49,0,6.51,3.49,6.51,7.29v1Zm2.87-5.27a3,3,0,0,0-2.87,2.87h5.73c-.31-1.71-1.24-2.87-2.86-2.87Z"/></svg>