<svg id="Layer_1" data-name="Layer 1" xmlns="http://www.w3.org/2000/svg" viewBox="0 0 24 24"><defs><style>.cls-1{fill:#fff;}</style></defs><path class="cls-1" d="M4.29,12.73c.56,0,1.12.1,1.69.09a3.53,3.53,0,0,0,3.07-1.77,4.44,4.44,0,0,0,.64-2.76,5.9,5.9,0,0,1,4.15-6.13,5.61,5.61,0,0,1,5.94,1.92,6.24,6.24,0,0,1,.13,7.56,2.06,2.06,0,0,0,.29,2.94,2.12,2.12,0,0,0,.92.41,3.5,3.5,0,0,1,2.71,2.56,3.6,3.6,0,0,1-1.54,3.92,3.21,3.21,0,0,1-4-.57,3.57,3.57,0,0,1-.63-4,2.12,2.12,0,0,0-.93-2.84,1.48,1.48,0,0,0-.5-.13c-1.05-.07-2.08-.25-3.12-.42A3.57,3.57,0,0,0,9.4,15.26a4,4,0,0,0-.66,2.16,4.43,4.43,0,0,1-2.42,4A4.27,4.27,0,0,1,.76,20,4.7,4.7,0,0,1,0,18,4.65,4.65,0,0,1,1.61,13.6,3.72,3.72,0,0,1,4.29,12.73Z"/></svg>