<svg id="Layer_1" data-name="Layer 1" xmlns="http://www.w3.org/2000/svg" viewBox="0 0 136 36"><defs><style>.cls-1{fill:#fff;}</style></defs><rect class="cls-1" x="71.48" y="14.86" width="3.99" height="12.74"/><polygon class="cls-1" points="64.08 23.26 61.47 14.86 57.34 14.86 61.94 27.61 62.77 27.61 65.44 27.61 66.07 27.61 70.72 14.86 66.64 14.86 64.08 23.26"/><polygon class="cls-1" points="84.93 14.86 80.22 14.86 76.04 20.32 80.53 27.61 85.25 27.61 80.46 20.32 84.93 14.86"/><circle class="cls-1" cx="73.47" cy="10.74" r="2.76"/><rect class="cls-1" x="52.57" y="14.86" width="3.99" height="12.74"/><circle class="cls-1" cx="54.57" cy="10.74" r="2.76"/><path class="cls-1" d="M44.83,14.49a15.88,15.88,0,0,0-4.6.64l1,2.83a10.06,10.06,0,0,1,2.81-.64c1.35,0,3.14,0,3.14,1.95h-.06a21.9,21.9,0,0,0-4.77.64A3.9,3.9,0,0,0,39.17,24a3.83,3.83,0,0,0,3.73,3.92,1.31,1.31,0,0,0,.28,0,5.11,5.11,0,0,0,4-1.76v1.42h4V19.26C51.12,16.6,50.1,14.49,44.83,14.49Zm2.3,8.15c0,.61-.1,2.55-2,2.55s-1.92-1.3-1.92-1.56A1.59,1.59,0,0,1,44.63,22a14.62,14.62,0,0,1,2.55-.35Z"/><path class="cls-1" d="M90.59,14.49a16,16,0,0,0-4.61.64L87,18a10,10,0,0,1,2.81-.64c1.35,0,3.14,0,3.14,1.95h-.06a21.9,21.9,0,0,0-4.77.64A3.9,3.9,0,0,0,84.93,24a3.82,3.82,0,0,0,3.67,4H89a5.08,5.08,0,0,0,4-1.76v1.42h4V19.26C96.87,16.6,95.85,14.49,90.59,14.49Zm2.3,8.15c0,.61-.1,2.55-2,2.55s-1.91-1.3-1.91-1.56A1.59,1.59,0,0,1,90.34,22a14.62,14.62,0,0,1,2.55-.35Z"/></svg>