<svg id="Layer_1" data-name="Layer 1" xmlns="http://www.w3.org/2000/svg" viewBox="0 0 24 24"><defs><style>.cls-1{fill:#fff;}</style></defs><polygon class="cls-1" points="9.54 9.41 14.46 9.41 19.42 4.45 14.46 1.99 9.54 9.41"/><polygon class="cls-1" points="14.46 9.41 9.54 9.41 4.58 4.45 9.54 1.99 14.46 9.41"/><polygon class="cls-1" points="15.38 10.96 12.92 15.25 14.71 22.01 19.34 18.96 15.38 10.96"/><polygon class="cls-1" points="12.92 15.25 15.38 10.96 22.13 9.16 21.8 14.67 12.92 15.25"/><polygon class="cls-1" points="11.08 15.25 8.62 10.96 1.87 9.16 2.2 14.67 11.08 15.25"/><polygon class="cls-1" points="8.62 10.96 11.08 15.25 9.29 22.01 4.66 18.96 8.62 10.96"/></svg>